<svg id="Layer_1" data-name="Layer 1" xmlns="http://www.w3.org/2000/svg" viewBox="0 0 334.53 366.88"><defs><style>.cls-1{fill:#bcdff2;}.cls-2{fill:#020303;}.cls-3{fill:#a3c1d2;}.cls-4{fill:#bcdff1;}.cls-5{fill:#798e99;}.cls-6{fill:#bbddf0;}.cls-7{fill:#b0d0e1;}.cls-8{fill:#0c0e10;}.cls-9{fill:#93afbd;}.cls-10{fill:#282f33;}.cls-11{fill:#090b0b;}.cls-12{fill:#738994;}.cls-13{fill:#657982;}.cls-14{fill:#15181a;}.cls-15{fill:#61747d;}.cls-16{fill:#60737c;}.cls-17{fill:#252c2f;}.cls-18{fill:#60727b;}.cls-19{fill:#333c41;}.cls-20{fill:#fecb98;}.cls-21{fill:#3c240b;}.cls-22{fill:#99735b;}.cls-23{fill:#866350;}.cls-24{fill:#946e58;}.cls-25{fill:#8d6853;}.cls-26{fill:#fdca98;}.cls-27{fill:#f5c393;}.cls-28{fill:#bbdef1;}.cls-29{fill:#7e6154;}.cls-30{fill:#1b0504;}.cls-31{fill:#c49875;}.cls-32{fill:#a37c61;}.cls-33{fill:#ac8467;}.cls-34{fill:#bb9170;}.cls-35{fill:#b48a6b;}.cls-36{fill:#9c765d;}.cls-37{fill:#cfa27b;}.cls-38{fill:#b6d8ea;}.cls-39{fill:#d7a980;}.cls-40{fill:#deb085;}.cls-41{fill:#ecbc8d;}.cls-42{fill:#e5b689;}.cls-43{fill:#b0d0e2;}.cls-44{fill:#886a5b;}.cls-45{fill:#f7c594;}.cls-46{fill:#210901;}.cls-47{fill:#acccdd;}.cls-48{fill:#15191c;}.cls-49{fill:#99b5c5;}.cls-50{fill:#596972;}.cls-51{fill:#93aebd;}.cls-52{fill:#9dbbca;}.cls-53{fill:#61737c;}.cls-54{fill:#a5c4d4;}.cls-55{fill:#9dbaca;}.cls-56{fill:#9bb7c7;}.cls-57{fill:#aac9da;}.cls-58{fill:#2a3236;}.cls-59{fill:#050606;}.cls-60{fill:#8098a5;}.cls-61{fill:#8b9ba3;}.cls-62{fill:#101314;}.cls-63{fill:#93a6b0;}.cls-64{fill:#87969d;}.cls-65{fill:#673f23;}.cls-66{fill:#060504;}.cls-67{fill:#080705;}.cls-68{fill:#7f3528;}.cls-69{fill:#e1956f;}.cls-70{fill:#d07e5f;}.cls-71{fill:#e29771;}.cls-72{fill:#e59c75;}.cls-73{fill:#221c17;}.cls-74{fill:#83392b;}.cls-75{fill:#e29671;}.cls-76{fill:#1c1813;}.cls-77{fill:#cf946f;}.cls-78{fill:#261f19;}.cls-79{fill:#d79e76;}.cls-80{fill:#eaa57c;}.cls-81{fill:#d89f77;}.cls-82{fill:#2f261c;}.cls-83{fill:#b88f67;}.cls-84{fill:#3c221a;}.cls-85{fill:#d69d76;}.cls-86{fill:#d19670;}.cls-87{fill:#99503c;}.cls-88{fill:#e0a87e;}.cls-89{fill:#792e23;}.cls-90{fill:#ecaa80;}.cls-91{fill:#040403;}.cls-92{fill:#f6c593;}.cls-93{fill:#cb6d51;}.cls-94{fill:#260e03;}.cls-95{fill:#a47f5b;}.cls-96{fill:#7e5c4b;}.cls-97{fill:#de8e6a;}.cls-98{fill:#7e3326;}.cls-99{fill:#98523e;}.cls-100{fill:#7d3226;}.cls-101{fill:#785647;}.cls-102{fill:#8da7b5;}.cls-103{fill:#5d3922;}.cls-104{fill:#fcfcfb;}.cls-105{fill:#faf9f9;}.cls-106{fill:#d1d0d0;}.cls-107{fill:#fafafa;}.cls-108{fill:#5f3a23;}.cls-109{fill:#fafaf9;}.cls-110{fill:#0e0907;}.cls-111{fill:#e7e5e4;}.cls-112{fill:#b96a4f;}.cls-113{fill:#8a786b;}.cls-114{fill:#f2f2f2;}.cls-115{fill:#f4f4f4;}.cls-116{fill:#959595;}.cls-117{fill:#969696;}.cls-118{fill:#883f2f;}.cls-119{fill:#040201;}.cls-120{fill:#aaa;}.cls-121{fill:#a0a0a0;}</style></defs><path class="cls-1" d="M269.86,366.88h-89.2c-2.69-3.18-.81-6.56-.45-9.89.22-2.11,1.07-4.09,1.14-6.21,0-2.83,1-5.49,1.24-8.27.1-2.41,1.06-4.66,1.27-7.05a11.39,11.39,0,0,1,.3-1.73c.77-2.19.87-4.53,1.37-6.78.78-3.32,1.5-6.66,2-10a13.1,13.1,0,0,1,.36-1.65c.81-2.61,1.44-5.28,2.08-7.94.32-1.29.77-2.56,1-3.88a15.73,15.73,0,0,1,.63-2.33c.38-1,.81-2,1.18-3.06a59.34,59.34,0,0,1,16.58-28.51c2.76-2,6-2.36,9.21-2.76,4.65-1.2,8.39.28,11.54,3.78a24.93,24.93,0,0,0,4.75,4.31c2.16,1.43,3.6.13,5-1.33,1.7-1.61,3.33-3.28,4.94-5,3-2.94,5.92-5.87,8.73-8.95,2.8-2.43,4.47-6,8.21-8.22,6,.37,11.33,3.17,16.51,6.16-.88,4.23-4.63,4.25-6.91,6.87a34.1,34.1,0,0,0,6.78-1.47c12.5-3.16,23,2.79,26,15.28,2.66,10.82,3.43,22,4.66,33,1.84,16.48,4.08,32.93,5.29,49.48.16,2.13.87,4.27-.81,6.13H278.07c-3.13-6.83-3.54-14.31-5-21.52-2.29-11.21-4.3-22.47-6.49-33.74-1.69,2.76-.81,5.56-.32,8.3,2.11,11.71,4.41,23.4,6.53,35.11C273.58,359.47,273.55,363.6,269.86,366.88Z"/><path d="M313.28,366.88c-1.58-15.1-3.08-30.22-4.77-45.31q-2.14-19.14-4.66-38.24c-1.17-8.78-4.6-16.06-14-18.91a18.87,18.87,0,0,0-10.89-.06c-4,1.1-8,2-13,3.17,2.93-5.29,7.72-6.54,12.31-9l-16.17-6.41c-2.95,2.89-4.88,6.9-8.53,9.29-1,.5-1.52-.14-1.91-.95-.38-2.86,1.69-4.62,3-6.75,3.46-5.76.49-12-6.25-13.27-.12,3.21,2.61,1,3.68,2,2.51,3.72-.36,5.29-2.88,6.7a183.35,183.35,0,0,1-21.58,10,24.26,24.26,0,0,0-4.57,1.95c-4.62,2.27-9.31,4.41-13.71,7.09-1.42.92-2.87,1.8-4.37,2.6-6.07,2.08-9.94,5.22-9.19,12.76.39,3.9,0,8.49-2.8,12.09-2.19-1-2-3.09-2.21-5-.26-4.57.55-9.19-.66-13.71-.95-8.08-1.6-16.22-4.36-24-1.2-3.27-.1-7.56-4.59-9.92-5,3.49-4.41,9.54-6.93,14.36,1.77-.16,2.66-1.58,4.12-1.29a1.85,1.85,0,0,1,1.53,1.81c-1.54,5-5.52,7.13-10.62,9.21-3.46-9,3.33-16.33,2.91-24.33-11.52-2.06-25.89-.64-32.82,9.4-9.52,13.78-19.74,27.13-29.82,40.54a9,9,0,0,0-2.21,4.86c2.53,6.43,6.21,13.1,8.78,20.24,1.63,4.52,1.93,8.7-.78,12.83a2.62,2.62,0,0,1-2.43.44c-3.3-4-2.65-9.94-6.87-13.43a3.83,3.83,0,0,1-.83-1.33c.07-1.47.82-2.94,0-4.42a35.37,35.37,0,0,0-2.37-4.31c-1.31-2.16-3.18-3.76-5.74-3.39-9.84,1.44-18.59,5.17-26.26,12.74,5.42,10.14,8.9,20.82,16.25,29.27,5.16,5.93,16,5.31,21.57-.93,6.76-7.59,13.39-15.29,19.81-23.17,3.12-3.84,3.43-8.58,3.64-13.32.53-11.37,2-22.58,6-33.32,1.07-2.88,2.07-5.9,5.27-7.28,2.81,1.7,2.22,4.16,1.79,6.37-5.41,27.95-6.3,56.23-6.41,84.57,0,2.86.5,6-2.73,7.8h-4.69c-.09-12.67,2-25.29.89-38.7L116.8,346.33c-2.15,2.54-4.21,5.17-6.94,7.12a21.53,21.53,0,0,1-30.75-6.12,226.22,226.22,0,0,1-14.7-27.69c-1.07-2.3.49-4.18,0-6.34-3.56-9-6-18.43-8.69-27.78-2.65-9.15-5.37-18.3-8-27.33-2.51-1.29-4.78-2.4-7-3.61a32.66,32.66,0,0,1-13-13.23,17.13,17.13,0,0,0-9.06-7.84Q12.42,231,6.24,228.37c-3-1.25-5.6-2.85-6.24-6.44.23-3.36,2.09-5.29,5.82-6.08l14.78,4.4c-1.45-2.87-1.45-2.87-4.61-5.44-2-1.61-4-3.18-5.86-4.86s-4-3.19-5.34-5.35c-.54-6-.06-6.72,6.24-8.88,6.36,2.83,11.47,8.16,17.75,11.57,1.32-1.56.22-2.65-.47-3.78-2.32-3.84-4.7-7.64-7-11.5a23.87,23.87,0,0,1-3.55-8.52c.63-3.91,3.13-5.73,6.7-6.37,3,.5,4.84,2.41,6.35,4.81,3.11,5,6.22,9.92,9.38,14.84,1.14,1.78,2.42,3.47,4.31,6.15-.38-10.76-4.07-20.19-2.08-29.93a5.18,5.18,0,0,1,2.23-2.77,9.15,9.15,0,0,1,6.71-.18c2.83,1.83,3.36,4.67,3.73,7.65,1,7.74,2.11,15.45,4.54,22.92a43.84,43.84,0,0,0,4.61,10.2c2.92-1,3.79-3.5,4.76-5.71a20.29,20.29,0,0,1,7.11-8.37c2.64-1.89,5.42-3.11,9.09-2.14a6.22,6.22,0,0,1,3.52,4.65c-.1,2.15-1.47,3.53-2.74,5-4,4.74-6.74,9.86-6.33,16.46.31,4.94-1.62,9.58-3.7,14-1.74,3.69-3.63,7.31-5.64,11.35,9.83,15.7,19.77,31.56,29.94,47.77,8.15-11,16.11-21.79,24.12-32.54,4-5.32,7.9-10.67,12-15.85,5.42-6.77,12.25-10.69,21.27-10.06a35.49,35.49,0,0,0,9.87-.57c1-1.43-.19-2.19-.84-3.08-12.23-16.71-20.9-34.86-23.76-55.66-2-14.73-3.78-29.44-2.14-44.3.79-7.12,2.16-14.18,3.23-21.27a21.46,21.46,0,0,0,.22-3.49c-.11-10.57,2-20.85,3.94-31.15,1.61-8.7,3.59-17.35,6.93-25.57C165.3,25.36,184,10,209.75,3.24A107.72,107.72,0,0,1,247.34.55c15.43,1.45,30,5,43.9,11.73,22.42,10.9,36.42,28.69,41.53,52.94a86.64,86.64,0,0,1,.89,29.65,126.41,126.41,0,0,1-8.12,31c.3.54.4,1,.68,1.2,7.56,5,9.22,12.33,7.84,20.56a44.12,44.12,0,0,1-10.32,22,104.89,104.89,0,0,1-12.83,12c-5.68,4.65-12.37,5.4-19.4,4.26-.92-.15-1.77-.91-2.78-.35-9.56,21.35-4,21.39-41.27,45.11.54,3.3,3.81,2.67,5.77,3.87s4.25,1.95,6.06,3.67c1.62,2.38,1.71,5.45,3.2,8.36,4.05,1.64,8.28,3.58,12.66,5.08,7.38,2.53,14.14,6.34,21.05,9.84s10.59,9.73,12.08,17.07c1.23,6.1,1.82,12.33,2.57,18.52,1.52,12.57,3.24,25.13,4.35,37.74.94,10.68,2.83,21.29,2.78,32.05Z"/><path class="cls-1" d="M105.64,316.21c5.58,3.18,6.44,8.65,7,14.3,0,.38,0,.76,0,1.17a2.63,2.63,0,0,0,2.16-1.49c1.91-4.83,1.13-9.2-.92-14-1.65-3.87-3.31-7.78-4.94-11.68a18.45,18.45,0,0,0-4.68-7.15c5-6.75,9.9-13.46,14.88-20.12,7.13-9.53,14.26-19.07,21.48-28.53a18.46,18.46,0,0,1,14.89-7.84c6.39-.23,12.77-.85,19.61-.73-1.9,8.68-5.05,16.73-6.25,26.23a28.1,28.1,0,0,0,10.63-8.65c.62-1.43,1.5-2.49,3.19-2.43,1.83,1.81.41,4.09,1.23,5.92a9,9,0,0,1,.1,3.11c-.6,2.85,1.66,4.63,2.6,6.91a13.92,13.92,0,0,1,1.45,5.13c.52,5.15-.71,10-2.16,14.91-6.87,23.16-9.32,47.2-14,70.78-.35,1.73-.46,3.48-1.74,4.84h-34c1.27-2.57,1-5.36,1-8.06-.22-15.24.73-30.46,1.5-45.66a226.41,226.41,0,0,1,5.12-38.75,10.75,10.75,0,0,0,.18-5.77c-10.12,15.43-8.87,33.45-11.31,51.08L116.17,339.1c-1.77,2.09-3.7,4-5.29,6.26-7.13,9.92-23.43,8.39-28.26-2.37a54.3,54.3,0,0,0-3.73-5.92c-1.57-2.56-1.55-2.57-1.93-7.08-5.52-2.62-4.51-9.1-8-12.73,4.93-8.16,23-16.14,32.81-14.65a8.7,8.7,0,0,1,2.56,5.61c-1.69,1.94-4.26.88-6.14,1.79-.88.18.31,1.21-.11.55-1-1.54,4.89-.67,8.34,1.24l1.41,1.8-2.17,2.7a4.39,4.39,0,0,1-2,.89C104.61,317.32,105.08,316.67,105.64,316.21Z"/><path class="cls-2" d="M269.86,366.88c-.21-1.46.8-2.57,1.14-3.87.29-1.12.72-2.21,1-3.17-2.79-16.19-6.45-32.08-8.58-48.57,1.78-.75,2.62-3,4.86-3.56,1.16,11.47,3.82,22.64,5.66,33.94,1.36,8.41,3.94,16.63,4.09,25.23Z"/><path class="cls-3" d="M170.1,366.88c-.17-6.77,1.81-13.23,2.88-19.83.93-5.83,2-11.64,3-17.47a278.05,278.05,0,0,1,6.16-30.25c2.18-7.91,5.07-15.71,4.51-24.13a1.43,1.43,0,0,1,1.55.27,9.38,9.38,0,0,1,1.62,4.88,7.49,7.49,0,0,1-.17,1.77c-1.23,7.74-3.67,15.18-5.58,22.75-3.43,13.55-5.33,27.38-7.63,41.13a9,9,0,0,0,.8,6.21c.71,1.76-.61,2.73-1.49,3.88-2.8,3.05-1.13,8-4.44,10.79Z"/><path class="cls-4" d="M171.27,366.88c-.09-3.18,1.71-6.08,1.3-9.37-.12-1,1-2,2.15-2.32,2,.35,5-1.91,5.8,2-.66,3.26-.56,6.69-2.21,9.72Z"/><path class="cls-5" d="M178.31,366.88c-.65-3.65,1.38-7,1.3-10.57.57-1.1-.26-2.09-.27-3.15,0-2-.31-4.05,1.8-5.3,1.71.05,1,1.77,1.7,2.5-.14,5.59-2.65,10.86-2.18,16.52Z"/><path class="cls-6" d="M181.71,347.94c-1.9,1.63-.74,3.88-1.18,5.81-1.4.92-2.38.14-3.31-.83l-3.69-.48c1.59-8.62,3.46-16.8,4.5-25.08.89-7.06,2.63-13.91,3.79-20.89a2,2,0,0,1,1.2-1.77c.21.15.43.29.65.42.57.48,1.07,1.06,1.92,1,1-.29,1.32-1.32,2.09-1.86a2.48,2.48,0,0,1,2.35.11c.81,1,0,2.11,0,3.16,0,2.72-1.63,5.19-1.19,8,0,.28,0,.56,0,.85-1.69,2.66-1.89,5.73-2.42,8.72-.29,3.07-1.87,6-1.07,9.19a5.9,5.9,0,0,0,0,.84c-1.84,2-1.63,4.65-2,7.11C182.71,344.11,183,346.27,181.71,347.94Z"/><path class="cls-7" d="M193.49,295.27c.22-6,1.54-11.88.53-18.2,2.1-4.65,6-6.95,11.24-7.3,1.71-.26,3.45-.69,4.76,1a63.28,63.28,0,0,0-12.68,18.19c-1.46,3.19-2.47,6.59-3.68,9.9A2.46,2.46,0,0,1,193.49,295.27Z"/><path class="cls-8" d="M240.55,274.27a9.94,9.94,0,0,1-3.07,3.18c-1.24.4-1.74-.64-2.51-1.11-3.61-3.22-5.34-8-8.48-11-3.22-.63-4.71,1.82-7,2.31a1.57,1.57,0,0,1-1.7-1.4c.73-2.62,2.86-4,4.87-5.44a6.35,6.35,0,0,1,3.72-1.57c3.83.9,5.3,4.27,7.32,7,1.69,2.32,2.88,5.12,6,6C240.44,272.8,241.06,273.3,240.55,274.27Z"/><path class="cls-9" d="M219.46,267.19,225.6,262c4.4,4,6.87,9.16,9.37,14.3-2.82-.65-4.06-3.24-6-4.95s-3.48-3.48-6.26-4.1c-1,.14-2,1.44-3.48.92-.32-.31-.39-.56-.21-.76A.6.6,0,0,1,219.46,267.19Z"/><path class="cls-10" d="M219.46,267.19a2.61,2.61,0,0,0-.23,1c-3.14.58-6.42.68-9.21,2.54-1.66.06-3.42.55-4.76-1,.35-2,2.55-1.53,3.59-2.63,3.13-.37,5.94-3.58,9.4-1A1.35,1.35,0,0,0,219.46,267.19Z"/><path class="cls-11" d="M252.16,259.87a1.77,1.77,0,0,0,1.45,1.5,45.37,45.37,0,0,1-8.24,8.2c-1.11.48-1.55-.2-1.89-1.07C244.78,264,247.52,261,252.16,259.87Z"/><path class="cls-12" d="M185.56,324.74c-.17-2.64,1.76-4.9,1-7.08.8-1.25,1.62-1.1,2.31-1.27a30.64,30.64,0,0,1-2.25,10.77C185.64,326.63,186.19,325.43,185.56,324.74Z"/><path class="cls-13" d="M188.88,315.54a2.13,2.13,0,0,1-.89-3c.94-1.8.83-3.71,1-5.6a1.48,1.48,0,0,1,2.14,0C190.85,310,190.52,312.93,188.88,315.54Z"/><path class="cls-14" d="M244,268.18a1.64,1.64,0,0,0,1.39,1.39,16.12,16.12,0,0,1-4.82,4.7,1.66,1.66,0,0,0-1.43-1.35C239.32,269.89,240.84,268.21,244,268.18Z"/><path class="cls-15" d="M185.56,324.74c1.21.43.86,1.55,1.08,2.42,0,2.44,0,4.9-1.24,7.14-1.92-.93-1.43-2.76-1-4A31.09,31.09,0,0,0,185.56,324.74Z"/><path class="cls-16" d="M181.71,347.94c.44-1.9-.61-4.1,1.13-5.76.42-.51.82-.52,1.19.06.43,2.83-1.46,5.32-1.19,8.12C181.59,350,182,348.81,181.71,347.94Z"/><path class="cls-17" d="M193.49,295.27c.06,1.19.11,2.38.17,3.57-.33.85-.34,1.86-1.2,2.45-1.59-1.24-1.64-3.19-2.25-4.88a7.54,7.54,0,0,1,.45-5.46,1.26,1.26,0,0,1,1.63-.44C192.93,292,191.38,294.12,193.49,295.27Z"/><path class="cls-18" d="M184,342.24l-1.19-.06c.09-1.71.19-3.42.27-5.13.06-1.48,1-1.9,2.26-1.91C185.63,337.64,184.12,339.81,184,342.24Z"/><path class="cls-19" d="M191.15,307,189,307l.79-2.26c-.84-1.45-.88-2.74.68-3.75,1.77,0,1,1.73,1.71,2.47C192.73,304.87,191.8,305.89,191.15,307Z"/><path d="M192.19,303.42c-1.17-.44-.74-1.63-1.13-2.44-1.15-1.58-1.17-3.07.33-4.46,2,1.23.4,3.25,1.07,4.77Z"/><path class="cls-20" d="M148,174.12a189.7,189.7,0,0,1-2.69-32c-.08-8.27,1.43-16.3,2.79-24.34a162.41,162.41,0,0,0,2-16.14c1.24-18.11,4.61-35.76,11.45-52.68a47.12,47.12,0,0,1,5-8.54c5.52-6.44,12.24-8.34,20.51-6.17,10.35,2.72,20.19,7.14,30.95,8.6,13.12,1.78,26.38,2.3,39.43,4.57,9.79,1.7,19.75,3.1,27.49,10.33A48.13,48.13,0,0,1,289.3,63c1.17,2,1.55,4.42,2.67,6.49a14.2,14.2,0,0,1,.43,4.1,15.82,15.82,0,0,1-1,4.9c-1.79,2.35-.64,5-.67,7.49-.82,2.42-.26,4.92-.41,7.38a10,10,0,0,0,.66,3.54c.38,1.2.82,2.39,1.23,3.59s.89,2.56,1.24,3.87.81,2.83,1.14,4.26a39.17,39.17,0,0,1-1.12,17,15.9,15.9,0,0,0-.93,4.47c-2.32,13-5.29,26.2-12,37.2-5.79,9.5-11.51,21-24.82,23.53-2,.38-3.28,2.81-5.62,2.94-2.32-.15-3.32-1.85-4.16-3.65-3-6.51-8.49-9.45-15.26-10.45-5.8-.86-11.61-1.69-17.5-1.35a78,78,0,0,1-33.31-5.43c-2.55-1-5.2-1.7-7.81-2.53-6.06-1.94-11.11-.68-15.26,4.27-1.6,1.9-3.23,4-6,3.81C148.43,177.73,148.57,175.71,148,174.12Z"/><path class="cls-21" d="M148,174.12c1.35.88,1.2,2.9,3,3.76a44.94,44.94,0,0,0,5.75-5.58c3-3.7,7.24-5.06,12-4.26a56.82,56.82,0,0,1,11.73,3.44,75.72,75.72,0,0,0,29.65,5.39,128,128,0,0,1,19.25,1c9.15,1.22,16.53,4.49,18.93,14.46.07.3.54.51,1.07,1,2.72-.81,4.27-3.5,6.63-5.23,1.28-.33.11,1.46,1.42,1.45,8.42-3.85,13.52-11.3,18.53-19l1.69,1c5.58-13.51,10.47-27.2,13.36-41.55,1.05-.7,2.36.1,3.41-.62,2.89-1.09,5.15.19,7.27,2a3.36,3.36,0,0,1,1,2.21c-.69,1.3-1.45,2.56-2.05,3.89s-.47,2.53,1.11,3.15c-4.92,13.08-8.1,26.78-14,39.5-1.56.45-1.78,2-2.39,3.13-2,3.75-4,7.52-5.68,11.41-4.27,9.71-11.18,16.87-20.08,22.57A207.41,207.41,0,0,1,224,235a11.16,11.16,0,0,1-3.41.52c-3.11,1.29-2.8-.79-2.4-2.59.63-2.79,2-5.37,2.65-8.15.13-.78-1.29-.11-.51-.21,1.88-.23-3.51,9.4-6.79,12.11-1.41.4-1.41.4-2.83-.64a9.26,9.26,0,0,1-6.6,3.06c-8.87.84-17.17-1.81-25.6-3.7a4.77,4.77,0,0,1-3.71-4c-.45-2.36-1-4.7-1.66-7.52l-1.31,3.41c-4.77-1.83-3.57-6.8-6.06-10.09L164.57,219a53.51,53.51,0,0,1-7.88-12.93c-3.72-9.23-7-18.63-8.79-28.48A16.29,16.29,0,0,1,148,174.12Z"/><path class="cls-20" d="M45.74,208.57c2.62-1.15,3.12-2.8,2.79-5-.83-5.58-1.48-11.19-2.38-16.77a59.68,59.68,0,0,1-.43-12.45c1.43-1.52,2.73-1.26,4.38-.75,2.25,4.08,1.65,8.93,2.54,13.43,1.87,9.38,3.75,18.69,9.4,27.15-4.21,4.77-9,9.56-8.21,17,.17,1.46-.34,3.3,1.93,3.69.17-.33.53-.69.49-1-1.06-8.39,3.07-14.25,9.45-18.8,3.67-2.61,4.94-6.78,7.41-10.16a22.48,22.48,0,0,1,6.83-6.25c1.41-.84,2.85-1.23,4.33-.21,1,2-.61,2.85-1.53,4-4.12,5.13-7,10.59-6.64,17.56.24,4.28-1.36,8.38-3.12,12.34-2.21,5-4.83,9.73-7.71,14.87l31.3,50c-9.85,3.4-19.35,7.07-28,13.09-3.82-9-6.08-18.19-8.49-27.29-2.35-8.87-6.27-17.39-7-27.44-.39-.47-1.73-.79-3-1.11-7.56-1.85-13.7-6-17.51-12.67A28.35,28.35,0,0,0,15.73,228.3c-2.77-.89-5.39-2.23-8.08-3.33-1.82-.74-3.5-1.59-4-3.75,2-2.21,4.14-1.11,6.09-.52,5,1.51,10,3.15,15,4.74,2.21.7,4.43,1.66,6.62.11,1-2.79-1-4-2.67-5.33-4.85-3.93-9.75-7.81-14.63-11.71A33.27,33.27,0,0,1,8.21,203c-.44-1.79.37-2.74,2-3.46,4.7,2.08,8.57,5.74,13,8.55,4.23,2.69,7.88,6.31,12.67,8.08,3-1.92,1.81-4.06.6-6.1-3.07-5.19-6.28-10.31-9.3-15.54-2.12-3.67-4.93-7-5.55-11.32.68-1.51,1.67-2.29,3.92-1.87C33.24,189.29,36.17,201.59,45.74,208.57Z"/><path class="cls-20" d="M241.49,232.94c.83,4.65-1.8,8.53-.93,11.91.14,2,1.57,2.13,2.6,3.14-16.64,8.06-33.65,14.37-49.47,24-.87-9.82-3.91-19-6-28.94C206.94,245.92,224.45,241.27,241.49,232.94Z"/><path class="cls-22" d="M322.54,51.28a8.21,8.21,0,0,1,1.62,4.54c-2.84,2.73-6.19,1.62-9.34,1-10.1-1.84-20.21-3.62-30.31-5.49-3.78-.71-7.59-1.65-11.48-.51-16-4.06-32.45-5.14-48.81-6.76a105.52,105.52,0,0,1-27.12-6.38c-7.47-2.82-15-5.65-23.19-3.08a2.72,2.72,0,0,1-2.59-1.08,24.78,24.78,0,0,1,6.76-7.08c5.79-1.28,11.19,1,16.69,2C237.39,35.94,279.94,43.76,322.54,51.28Z"/><path class="cls-23" d="M188.64,18.29a30.47,30.47,0,0,1,14.07-7,1.28,1.28,0,0,1,1.67,0c1,2.22,3.08,2.78,5.24,3.18Q251.77,22.2,294,29.58a14.33,14.33,0,0,0,5.8.13c5.14.43,8.43,4,12.09,7,.74,1.54,3.15,2.89.53,4.79a9.57,9.57,0,0,1-5.2,0c-36.87-6.74-73.81-13.1-110.64-20C193.74,21,190.66,20.89,188.64,18.29Z"/><path class="cls-24" d="M313.28,40.69c-.78-1.17-1.57-2.34-2.35-3.52-.09-2,.87-1.94,2.22-1.16a48.35,48.35,0,0,1,9.39,15.27,6.57,6.57,0,0,1-5.57,1c-13.62-3.17-27.47-5.07-41.17-7.84-9.55-1.94-19.27-3.3-28.9-5-9.8-1.72-19.5-4-29.34-5.47-7.8-1.11-15.5-2.68-23.25-4-5.45-.9-11-1.5-16.23-3.57a12.89,12.89,0,0,1,5-4.5c13,1.25,25.75,4.12,38.58,6.4,28.79,5.12,57.59,10.2,86.34,15.54a7.92,7.92,0,0,0,3.65.14C313.13,43.5,312.87,41.92,313.28,40.69Z"/><path class="cls-25" d="M313.28,40.69c1.77,1.2,2.21,3,2.3,5.12-3.77,2.15-7.27-.28-10.68-.71-7.76-1-15.4-2.94-23.1-4.39-12.61-2.37-25.24-4.66-37.87-6.79-12.29-2.07-24.48-4.66-36.85-6.34-6.42-.87-12.8-2.35-19.23-3.42-1.65-.28-3.15-1.43-4.72-2.18,1.66-1.49,3.12-3.29,5.51-3.69,9.56,1.84,19.12,3.74,28.69,5.52,7.52,1.4,15.06,2.66,22.58,4l22.59,3.94c8.09,1.42,16.18,2.81,24.26,4.29,7.32,1.34,14.65,2.67,21.93,4.24A34.41,34.41,0,0,0,313.28,40.69Z"/><path class="cls-26" d="M287.77,180.11a4.52,4.52,0,0,1,.07-3.37c3.72-10.74,7.49-21.46,11-32.27a6.9,6.9,0,0,1,3-3.86c1.77-.63,2.6-2.3,3.87-3.47a30.75,30.75,0,0,1,7.54-5.47c8.39-4,15.89.37,16.42,9.69.47,8.13-2.6,15.26-6.94,21.88-4.13,6.3-10,10.95-15.85,15.47-4.43,3.42-9.79,3.49-15.13,2.39C290.39,180.83,289.09,180.44,287.77,180.11Z"/><path class="cls-27" d="M301.5,132.32c-1.35-.69-2.72-1.36-4.05-2.09s-2.17-.21-2.95.81c-3-.5-1.94-3-2.35-4.77,1.52-6.16,1.15-12.44,1.18-18.7,1.75-1.74,3.86-1.34,6-1,6.3.87,12.51,2.29,18.78,3.37,2.13.36,5.32,0,5.75,3.56a24.35,24.35,0,0,1-3.27,9.83C312.08,121.78,306.92,127.32,301.5,132.32Z"/><path class="cls-28" d="M244,268.18a16.39,16.39,0,0,0-4.86,4.74l-1.73,1c-4.13-4.23-5.46-10.72-10.72-14.11-1-.58-1-1.16,0-1.75q10-4.49,19.94-9c2.12-1,4.17-2.07,5.39-4.17.51-.89.56-1.85-.85-2.08a7,7,0,0,1-4.64-3.87c0-.89.38-1.52,1.38-1.22a20.42,20.42,0,0,1,7.1,3.41c1.75,2.82,2.09,5.92,3,8.55-.55,4.42-4,6.8-5.79,10.17A60.6,60.6,0,0,0,244,268.18Z"/><path class="cls-29" d="M204.13,11.36l-1.42-.11c4.56-2.69,9.7-3.58,14.77-4.53,9.41-1.78,19-1.73,28.47-1.13a113.53,113.53,0,0,1,47,13.33,8.73,8.73,0,0,1,1.63,1.59,3.29,3.29,0,0,1-1.24,4c-1.63.42-3.1-.16-4.59-.7-6.64-3.8-13.76-7.11-21.14-8.19-13.15-1.94-26.11-6.49-39.72-4.24a71,71,0,0,1-7.58.41c-2.48.12-4.78,1.16-7.24,1.42C210,12.91,206.78,13.57,204.13,11.36Z"/><path class="cls-30" d="M171.32,33.56a6.77,6.77,0,0,0,2.32.07c7.69-2.59,14.89-.48,22,2.31,10.52,4.14,21.45,6.06,32.66,7.23,15.12,1.58,30.41,2.29,45.12,6.73,4.95-.33,8.73,2.08,12.18,5.24a4.6,4.6,0,0,1,1.31,3.16c-.28.88-.66,1.62-1.8,1.19-7.84-6.85-17.49-9.18-27.38-10.51-13.13-1.76-26.31-3.17-39.48-4.59-7-.75-13.71-2.8-20.36-5-1.84-.62-3.65-1.35-5.46-2.07-9.18-3.66-17.87-3.19-25.85,3.11C166.54,37,170,36,171.32,33.56Z"/><path class="cls-31" d="M289.78,86.41c.18-1.93-.11-3.65-2.25-4.22.65-1.76,2.76-2.08,2.37-4,11.38,3.8,23.36,4.81,35,7.46a7.13,7.13,0,0,1,3.51,1.93c-.11,3.19,1.15,6.52-1,9.5-10.81-2.47-21.77-4.16-32.64-6.34C292.62,90.36,288.69,91,289.78,86.41Z"/><path class="cls-32" d="M286.34,58.22,285,56.07c.92-4.17,4.21-2.67,6.54-2.38,7.36.88,14.63,2.4,21.9,3.84,3.91.78,7.63,1,11.39-.37,1,3.47,3.11,6.67,2.41,10.52a6,6,0,0,1-5.44,1.3c-10.46-1.84-21-3.27-31.34-5.74C288.09,62.42,287.14,60.38,286.34,58.22Z"/><path class="cls-33" d="M289.63,61.85c8,1.33,16.06,2.61,24.06,4.14,4.45.86,8.93,2.2,13.59,1.69.47,2.33,1.82,4.53,1.08,7A4.92,4.92,0,0,1,324.08,76c-10.12-1.44-20.18-3.26-30.17-5.37a7.44,7.44,0,0,1-3-1.74c-2.37-.9-.7-3.83-2.51-5A2.23,2.23,0,0,1,289.63,61.85Z"/><path class="cls-34" d="M328.39,87.63c-5.64-.89-11.3-1.73-16.93-2.69-3.37-.57-6.68-1.56-10.07-2a22.4,22.4,0,0,1-11.49-4.75,8,8,0,0,0,1.1-4.69c9.16,0,17.92,2.72,26.88,4.13,3.57.56,7.42.5,10.53,2.91A25.93,25.93,0,0,1,328.39,87.63Z"/><path class="cls-35" d="M328.41,80.59c-6.59.45-12.74-2.17-19.21-2.75-5.25-.47-10.4-2-15.58-3.15A14.05,14.05,0,0,1,291,73.55l-.07-4.68c5.95.38,11.7,2,17.56,2.84,6.63,1,13.13,2.82,19.87,3C328.38,76.68,328.39,78.64,328.41,80.59Z"/><path class="cls-36" d="M324.87,57.16c-1.44.51-.8,2-1.44,3a3.18,3.18,0,0,1-2.78.49c-7.14-1.3-14.26-2.68-21.39-4-3.19-.61-6.36-1.39-9.58-1.71-1.53-.15-3.59-1-4.64,1.21-3.41-3-7.73-4.19-11.65-6.17.11-.56.23-1.11.37-1.78,13.53,1.49,26.73,4.61,40.08,6.82a47.94,47.94,0,0,0,10.32.88A1,1,0,0,1,324.87,57.16Z"/><path class="cls-37" d="M289.78,86.41c.1.57.2,1.15.33,1.92L326.6,95c.81.57.66,1.42.82,2.15l-.21,2.24a4.26,4.26,0,0,1-3.79,1.08c-11.63-2.23-23.48-3.31-34.82-7,.1-1,1-1.82.3-3.15S288,87.37,289.78,86.41Z"/><path class="cls-38" d="M178.21,256.53l-5,3.94c-.28-5,2.15-12.81,5.95-19.13A8.11,8.11,0,0,1,185,242.4a41.93,41.93,0,0,1,1.84,9.42,3.05,3.05,0,0,1-1.12,1.05C183,253.67,180.77,255.44,178.21,256.53Z"/><path class="cls-39" d="M288.6,93.5c4.85-1.4,9.26,1.07,13.86,1.7,8.29,1.13,16.51,2.75,24.75,4.17.12,1.67.66,3.43-1,4.73-12.23-1.87-24.67-2.65-36.4-7.09C289.41,95.84,288.37,94.89,288.6,93.5Z"/><path class="cls-40" d="M289.82,97c6.13-.06,12.07,1.51,18,2.73,4.1.84,8.33.44,12.34,1.9,2.06.75,4.39.78,6.08,2.46l-.21,2.3c-7.52,1.95-14.44-1.6-21.64-2.5-4.49-.55-9.33-.67-13.38-3.37C290.61,99.35,289.51,98.41,289.82,97Z"/><path class="cls-41" d="M323.85,113.45c-1.29-2.21-4-1.79-5.64-2-7.21-.93-14.23-2.74-21.39-3.84a23.89,23.89,0,0,0-3.49,0c-1.82-.7-1-2.28-1.17-3.52a3.09,3.09,0,0,1,2.52-1.27c10.3,1.33,20.67,2.33,30.51,6C324.83,110.37,325.6,112.27,323.85,113.45Z"/><path class="cls-42" d="M325.19,108.79c-6.82.29-13.24-2.2-19.93-3-4.37-.49-8.59-2.2-13.1-1.79-.38-1.18-1.48-2.12-1.17-3.52,6.63-.49,12.89,1.87,19.31,2.84,5.23.8,10.59,1.41,15.71,3C326.18,107.35,326.28,108.28,325.19,108.79Z"/><path class="cls-43" d="M185.45,251.86l1.36,0c3.31,7.86,4.25,16.17,4.63,24.58.45,1.19.55,2.25-1,2.76-1.57-.59-1.64-2.14-2.14-3.4a54.58,54.58,0,0,0-2.67-5.88c-.69-2-2.8-3.31-2.68-5.68v-2.3C183.08,258.37,184.31,255.13,185.45,251.86Z"/><path class="cls-44" d="M293.34,24.26c-.31-1.5.92-2.47,1.26-3.75,6.92,4.3,13.87,8.53,18.55,15.5-.94,0-1.91,0-2.22,1.16l-10.56-7c-1.8.53-1.38-1.63-2.45-2C296.38,26.84,294.35,26.15,293.34,24.26Z"/><path class="cls-45" d="M301.5,132.32c3.13-7.11,8.69-10.5,16.37-10.67,1.26,0,2.31.24,2.71,1.63-.1,1-.42,1.8-1.67,1.93-6.49.64-11.64,3.9-16.16,8.36A1.52,1.52,0,0,1,301.5,132.32Z"/><path class="cls-46" d="M213.52,236.65,221,223.23a21.24,21.24,0,0,1-2.35,11.54c.33.78,1.15.66,1.88.72C218.54,237.83,215.86,236.15,213.52,236.65Z"/><path class="cls-47" d="M218.25,266.1c-3.19-.11-6.14,1.83-9.4,1,4.17-3.37,9.18-5.06,14.06-7,.36.26.48.52.37.79s-.22.41-.33.41A21,21,0,0,1,218.25,266.1Z"/><path class="cls-48" d="M185.45,251.86a3.26,3.26,0,0,1,.24,3.74c-1.05,2-1.81,4.19-2.69,6.3-2.77-1.67.08-3.72-.33-5.54-1.4-.26-1.73,1.86-3.2,1.35a1.44,1.44,0,0,0-1.26-1.18C180.15,254.25,182,251.87,185.45,251.86Z"/><path class="cls-49" d="M106.46,311.8c-3.32.53-6.12-2.25-9.55-1.26a9.57,9.57,0,0,1,7.46-2.32A7.29,7.29,0,0,1,106.46,311.8Z"/><path class="cls-50" d="M190.17,278.78c1.42-.26.8-1.61,1.27-2.38,2,4.6.59,9.41.85,14.11l-.89.19c-1.46-1-1.52-2.59-1.68-4.13-.13-2.08,0-4.17-.2-6.25A1.57,1.57,0,0,1,190.17,278.78Z"/><path class="cls-51" d="M246.51,239c1.62,1.2,4.14,1.33,4.64,3.87-1.29,2.56-2.94,1.18-4.55.46C245.78,241.83,246.27,240.4,246.51,239Z"/><path class="cls-52" d="M114.77,330.19c0,1.94-2.1,2.69-2.59,4.69-1.11-1.82-1.37-3.21.41-4.37Z"/><path class="cls-53" d="M223,261.31l0-1.2c.81-1.49,2.35-1.65,3.76-2.05v1.75C225.2,259.75,224.16,260.75,223,261.31Z"/><path class="cls-54" d="M146,262.85c-.32-6.93,1-13.44,5.94-18.8C150.27,250.41,146.56,256.12,146,262.85Z"/><path class="cls-55" d="M84.49,324.7c-1.77,3.83-1.1,7.94-1.31,12.35-3.56-2.73-1.65-6.42-2.45-9.41-.63-.31-1.48.5-2-.41.05-1.33,1.05-1.37,2-1.43C82,325.32,82.9,323.93,84.49,324.7Z"/><path class="cls-56" d="M105.64,316.21c-.26,1.1.27,2.35-.83,3.55a8.94,8.94,0,0,1-4.84-2.38c1.52-3.4,3.72-1.71,5.73-1.08Z"/><path class="cls-57" d="M96.58,307.17c-2.9,3-7,2.75-10.38,4.24C89.06,308.34,93,308.33,96.58,307.17Z"/><path class="cls-58" d="M183,264.2a12.18,12.18,0,0,1,3.32,5.38c-.24.54-.34,1.2-1.1,1.3-1-1.43-2-2.84-2.94-4.28C181.57,265.54,182.06,264.79,183,264.2Z"/><path class="cls-59" d="M185.21,270.88c.2-.58.42-1.14,1.1-1.3.84,1.89,2.68,3.38,2.24,5.76-.27.61-.57.62-.9,0a2.34,2.34,0,0,1-1-.18C186.15,273.76,185.68,272.32,185.21,270.88Z"/><path class="cls-60" d="M84.49,324.7c-1.27.31-2.29,1.47-3.75,1.1,1-1.55,2-3.23,4.27-1.93.68.38.41,1.13-.09.53C84.91,324.39,84.64,324.6,84.49,324.7Z"/><path class="cls-28" d="M191.23,285.88c.05,1.61.11,3.21.17,4.82v5.82l-.33,4.46c-1.26.95-.74,2.51-1.26,3.72l-2,0a4.79,4.79,0,0,1-4.79,0h0c-.53-3.79,1.49-7,2.4-10.49,1.14-4.31,1.52-8.83,3.35-13C191.27,281.9,190,284.55,191.23,285.88Z"/><path class="cls-61" d="M177.22,352.92c1.27-.42,2.17.72,3.31.83.1,1,.37,2.06-.92,2.56-.4-.82-.85-.84-1.66-.37-1.2.69-2.45.79-3.23-.75C174.92,353.74,176.9,354.24,177.22,352.92Z"/><path class="cls-62" d="M187.65,275.38a5.43,5.43,0,0,1,.9,0c.58,1.13,1.7,2,1.62,3.44l-.26,1.22c-.28.58-.58.61-.9,0A8.9,8.9,0,0,1,187.65,275.38Z"/><path class="cls-10" d="M189,280a3.4,3.4,0,0,0,.9,0c1.41,1.75,1.45,3.8,1.32,5.88-2.13-.85-.92-3.47-2.46-4.63Z"/><path class="cls-63" d="M183,304.69l2.4-1.12,2.39,1.11c-.11,1.5.36,3.21-1.47,4.12a3.18,3.18,0,0,1-1-.07c-.7-.3-1.36-.69-2.29-1.18Z"/><path class="cls-64" d="M182.64,331.05a2.36,2.36,0,0,1-2.25.5,1.85,1.85,0,0,1-.93-1.93c0-.73.16-1.44.2-1.82a2.17,2.17,0,0,1,2.3-.63c.34.31.8.53.86.82C183,329.08,183.37,330.23,182.64,331.05Z"/><path class="cls-65" d="M224.22,95c12.77-3.53,24.73-1.53,35.53,6.74a12.88,12.88,0,0,1,5.39,10.81,39.93,39.93,0,0,0-20.56-10.45c-7.48-1.3-15.11.16-22.55-.35C221.52,98.83,222.6,97,224.22,95Z"/><path class="cls-65" d="M158.12,93.69c1.69-6.14,5.78-8.23,10.35-9.5,10.9-3,20.74-.71,29.46,6.07a8.91,8.91,0,0,1-.14,6.7c-3,.76-5.16-1.14-7.5-2.32-5.08-2.57-10.28-4.54-16.09-4.71A30.9,30.9,0,0,0,158.12,93.69Z"/><path class="cls-66" d="M232.51,114.5c5.49-.11,10.81,1.07,16.12,2.28A20.66,20.66,0,0,1,262.86,128c-.71,1-1.33,2-2,3-4.17,5.72-9.48,7.71-16.25,5a10.48,10.48,0,0,0-1.72-.35,1.12,1.12,0,0,1,.23-1.47,6.52,6.52,0,0,1,3.23-.88c4.28.35,7.88-.78,10.25-4.85-.26-2.27-2.41-3.08-3.89-4.42-3-1.11-5.72-2.83-8.95-3.22a17.05,17.05,0,0,1-2.45-.46c-2.44-.82-5-.51-7.47-.59-7.57.11-10.05,1.94-11.8,8.64,1,3.52,6.21,1,6.85,5-2.39,1.2-4.8.93-7.23.19-2.33-1.1-3.76-3.21-5.9-4.87,1.49-4.66,4.57-8.11,7.21-11.68,0-1.43-1.49-.83-2-1.61s-.21-1.19.16-.5a4.21,4.21,0,0,0,.52-.2A25.45,25.45,0,0,1,232.51,114.5Z"/><path class="cls-67" d="M192.38,126.51l-.56-.11-.56.11a2.4,2.4,0,0,1-.71-1.37,14.27,14.27,0,0,0-1.44-11.08,6.47,6.47,0,0,0-3.87-3.27,17.13,17.13,0,0,0-3.75-.78,32,32,0,0,1-4.64-1.23,15.4,15.4,0,0,0-4.66-.89c-3.69,0-7.38-.09-10.06,3.36,0,4.53,3,6.27,6.72,7.37,2.54.76,5.46.52,7.36,2.92a1.8,1.8,0,0,1-.32,1.61,3.15,3.15,0,0,1-2.55-.19c-.78,0-1.56,0-2.33-.16-10.88-1.66-11.84-2.57-14.44-13.77a17.26,17.26,0,0,1,16-6,104.12,104.12,0,0,1,19.84,4.7c1.62.54,3.28,1.24,4.15,3.14l-2.78.28c1.18,3.88.9,8.09,3.26,11.67.93,1.19.52,2.17-.49,3C195.26,126.59,193.92,127.15,192.38,126.51Z"/><path class="cls-68" d="M195.89,125.24c1.29-.39,1.26-1.41,1.18-2.46.56-2.2,1.12-4.4,1.93-7.53a23.5,23.5,0,0,1-1.36,14.45c-2.29,5.6-5.59,10.63-8.57,15.85-1.54,2.7-3.07,5.4-4.45,8.18s-2,5.87-.31,8.9c1.4,3,4,4.49,6.8,5.83,1.52.73,3.32,1,3.91,3-.61,1.48-1.68,1.33-2.86.83a6.23,6.23,0,0,1-1.15-.11c-2.26-.73-10.55-6.22-12.53-8.27.28-.34.57-.67.87-1,.53-1.74,0-3.51.14-5.25v-.78c3.52-5.93,7.1-11.82,10.53-17.8,1.44-2.51,3.08-5,3.72-7.85C194.13,129.1,194,126.82,195.89,125.24Z"/><path class="cls-69" d="M191.25,68.83c3.79,0,7,1.92,10.49,3A99.23,99.23,0,0,0,225.52,76c6.32.34,12.62,1.39,19,1.29-1.25,1.3-2.75.88-4.12.9-4.49.07-9-.15-13.47.07-12.08.59-23.21-3-34.15-7.47a7.26,7.26,0,0,0-2.74-.83C189.8,68.94,190,68.38,191.25,68.83Z"/><path class="cls-70" d="M194.67,171c-4.72-1.24-9.18-2.79-10.36-8.39,3.66,2.9,7.49,5.34,12.46,4.8,1.45-.16,2.58.58,3.79,1.12,2.49,1.8,6.85-.78,8.28,3.53a19.63,19.63,0,0,1-9.61,1C197.72,172.36,195.58,173.06,194.67,171Z"/><path class="cls-71" d="M198.28,64.14a152.41,152.41,0,0,0,21.57,5.56c2.71.44,5.41.14,8.11.31,2.44.15,4.95-.36,8.59.8-13.24,1.08-25,.94-36.21-4.38-1-.5-2-1.25-3.23-1.12C196.83,64.26,197.05,63.7,198.28,64.14Z"/><path class="cls-72" d="M195.89,125.24a7.31,7.31,0,0,1-2.15,6c-1.65-2.19-2.18.28-2.82.87-2.45,2.26-4.86,4.34-8.79,3.35,3.58-3.08,9.24-3.33,10.25-8.91C193.5,126,194.36,124.68,195.89,125.24Z"/><path class="cls-73" d="M173.34,123l2.76-.16a4.74,4.74,0,0,1,2.55-1.23c4.41.45,8.71,1.28,12.58,3.62l0,1.32c-1.16,1.87-2.9,1.55-4.53,1C182.25,126.07,177.8,124.49,173.34,123Z"/><path class="cls-74" d="M208.84,172.08a10.61,10.61,0,0,0-6.07-2.24c-1-.09-1.87-.17-2.21-1.29a22.49,22.49,0,0,1,10.14,1.38c3-1.24,3.3-3.83,4.58-6C216.16,169.29,214.49,171.28,208.84,172.08Z"/><path class="cls-75" d="M224.65,142.26c-4.08-1.84-7.21-4.5-7.66-10.15C220.14,135.68,221.65,139.53,224.65,142.26Z"/><path class="cls-76" d="M242.87,134.49c0,.35,0,.7,0,1L230,134.35c.43-2.82,2.77-2.13,4.54-2.49,1.61,0,3.23-.05,4.85,0C240.9,132.3,242.82,132.15,242.87,134.49Z"/><path class="cls-77" d="M257.78,162.6a6.33,6.33,0,0,1-2.81-2.84c1.25-2.2,2.37-2.13,5.36.32A2.53,2.53,0,0,1,257.78,162.6Z"/><path class="cls-78" d="M234.88,133.25c-1.57.6-3.59-.79-4.87,1.1-2.8-.17-5.76,1.07-8.36-.92,2.34-.56,5,.94,7.1-1,1.57-1.86,3.46-1.66,5.44-.85A1.48,1.48,0,0,1,234.88,133.25Z"/><path class="cls-79" d="M256.89,167.32c-1.13,2-2.61.85-3.57,1.24-1.15-.92-1.21-1.8-.61-3.09C254.79,164.54,256,165.56,256.89,167.32Z"/><path class="cls-80" d="M191.25,68.83A1.31,1.31,0,0,0,190.07,70l-8.85-3.27C185.57,66.48,188.51,67.17,191.25,68.83Z"/><path class="cls-81" d="M263.31,165.06c2.59-1.89,3.44-.53,4.18,1.68C265.15,167.9,263.84,167.52,263.31,165.06Z"/><path class="cls-82" d="M232.51,114.5l-10.85.07C225.26,112.55,228.88,113.3,232.51,114.5Z"/><path class="cls-83" d="M292.15,126.27c1.32.46,1.19,1.6,1.2,2.65s.1,1.77,1.15,2.12a1.18,1.18,0,0,1-1.06,1.1c-1.47.05-.89-2.16-2.35-2.12C291,128.64,290.49,127.16,292.15,126.27Z"/><path class="cls-84" d="M289.63,61.85l-1.21,2c-1.11-1.46-2.23-2.91-3.34-4.36a1.5,1.5,0,0,0,1.26-1.27C288.16,58.78,288.25,60.89,289.63,61.85Z"/><path class="cls-85" d="M158.2,141.07a5.58,5.58,0,0,1-.52,1.63c-.44.61-1,1.25-1.92,1-1.19-.56-.84-1.56-.74-2.49C156,140.1,157,140.3,158.2,141.07Z"/><path class="cls-86" d="M244.51,155.56c1.68.45,2.23.94,2.6,1.67-.05,1.12-.9,1.49-1.67,1.83-1.24,0-1.74-.83-2.45-2Z"/><path class="cls-87" d="M194.67,171c1.38,1,3.45.44,4.56,2-2.4.16-4.89,1-7.07-.79C193.08,172,194.3,172.38,194.67,171Z"/><path class="cls-88" d="M151.44,147.72c-1.64-1.54-1.33-2.53-.55-3.73C153.2,144.82,152.53,146,151.44,147.72Z"/><path class="cls-89" d="M179.45,163.9l-1,0c-.36-2.44-1.36-5,1-7h0A9.06,9.06,0,0,1,179.45,163.9Z"/><path class="cls-90" d="M198.28,64.14a1.31,1.31,0,0,0-1.17,1.17l-4.94-2C194.86,63.12,196.73,62.08,198.28,64.14Z"/><path class="cls-79" d="M155,150.17c-.17-1,.42-1.69,1.38-2.21,1.55.85.3,1.81.51,2.57C156,150.84,155.45,150.76,155,150.17Z"/><path class="cls-20" d="M231.22,188.17c3.39.74,3.61,3.65,4.38,6.35-.77,6.06-4.2,10.57-8.69,14.53a41,41,0,0,1-17.21,9.35c-4.58,1.15-9.25,1.59-12.65-2.9-.77-.85-.28-1.84-.32-3-4.44-1.06-9.11-1.24-13.81-3.2,1,1,1.67,1.63,1.25,2.68-2.78,3.32-6,3-9.46,1.23a15.43,15.43,0,0,1-5-4,35.58,35.58,0,0,1-8.07-25c.13-2.15.3-4.34,2.69-5.39a13.27,13.27,0,0,1,5.79,7.1c3.52,9.17,10.39,14.5,19.75,16.49,13.93,3,26.74.72,37.62-9.16a7.36,7.36,0,0,0,2.64-3.74A3.28,3.28,0,0,1,231.22,188.17Z"/><path class="cls-91" d="M231.09,189.81c.12,1,1.53,1.31,1,3-2.64-.13-4.22,2.11-6.23,3.77a36.47,36.47,0,0,1-21.29,8.4c-7.63.51-15.12,0-22.16-3.48a26.1,26.1,0,0,1-13.23-14.09c-1-2.49-1.43-5.18-4.33-6.41-.39-.16-.31-1.41-.45-2.15a1.6,1.6,0,0,1,.61-.77,7.3,7.3,0,0,1,6.78.88c16.31,6.94,33.36,9.61,51,9.14C225.63,188,228.61,187.84,231.09,189.81Z"/><path class="cls-92" d="M231.09,189.81c-5.83,0-11.66.12-17.47-.15-13.65-.63-27-3-39.69-8.22-1.37-.56-3-.74-3.87-2.26-.12-2.22,1.19-1.8,2.51-1.37,3.69.59,7,2.42,10.48,3.51a120.27,120.27,0,0,0,36.31,5c4,0,8.18-.57,11.86,1.81Z"/><path class="cls-93" d="M184.17,212c-1-1.83-3.88-1.8-4.31-4.82,6.85,1.88,13.49,3.93,20.58,4-.18,2.82-4.36,1.41-3.39,4.4l-2.38-2.21C191.3,213.75,187.8,212.39,184.17,212Z"/><path class="cls-94" d="M251.68,202c-1.11,5.55-1.77,11.16-6,15.26C246.93,211.87,248.57,206.59,251.68,202Z"/><path class="cls-95" d="M172.57,177.81c-.95.25-2.17,0-2.51,1.37-1.19-.82-2.34-1.68-3.84-.5-.15.12-.81-.4-1.24-.63C167.45,176,170,176.27,172.57,177.81Z"/><path class="cls-96" d="M299.2,27.78c2,0-.84,2.37,1.17,2.35-.09.57-.17,1.14-.33,2.21L202.47,14.8c-1.18-2.44,1.67-2.05,1.66-3.44,3.15.26,6.46-.79,9.39,1.17,10.4.16,20.44,2.88,30.59,4.64C260.44,20,276.77,22.9,293.05,26A29.77,29.77,0,0,1,299.2,27.78Z"/><path class="cls-97" d="M321.59,137.12c-.42,2.08,1.83,2.87,2.2,4.53,1,13.3-6.2,21.72-16.65,28.25a6.73,6.73,0,0,1-4.43,1,5.84,5.84,0,0,1-4.6.6c-4.26-2.75-1.28-5.26.23-7.83a15.88,15.88,0,0,0,3.33-9c.28-6.13,5.21-9,9.22-12.4,5.66,1.73,4.2,6.58,5.29,10.15,0,1.39-1.17,2.62-.89,3.94.37.24,0,.06,0-.32.1-1.29.91-2.44.9-3.79a34.38,34.38,0,0,0-2.63-10.45C315,137.75,317.64,136.34,321.59,137.12Z"/><path class="cls-98" d="M315.53,153.31c-1.48-3.24.07-7.57-4-10.26-4.28,3.92-9.28,7.21-9.06,14.33a8.69,8.69,0,0,1-3.28,6.53c-1.08.33-1.56.05-1.16-1.13,1.47-2.55,2.56-5.21,2.25-8.25a6.75,6.75,0,0,1,1.43-4.91c3.74-4.72,7.72-9.23,13-12.36,3.29-2,3.56-1.89,8.66-1.17.63-.46.16,1.29-.13.57s.24,0-.52.19c-.37.1-.75.18-1.13.27-4.32,1.43-4.32,1.43-7.1,4,1.59,3.79,2.95,7.81,2.21,12.17A.74.74,0,0,1,315.53,153.31Z"/><path class="cls-99" d="M298.06,162.78a1.3,1.3,0,0,0,1.16,1.13c-1.2,2.29-4.14,4.31-1.11,7.24a.67.67,0,0,1-.12,1c-2.39.24-2.43-1.87-3.33-3.37C295.36,166.63,295.86,164.24,298.06,162.78Z"/><path class="cls-100" d="M298,172.17a8.86,8.86,0,0,0,.12-1l4.6-.22C301.41,172.37,300.16,174,298,172.17Z"/><path class="cls-101" d="M219.4,10.19c3.64-.2,7.24,0,10.93-.92a17.93,17.93,0,0,1,10.36.39c3.39,1.26,7,0,11.1.83.51.14.51,1.88,1.9,2h11.92c8.06,4.14,17.21,4.93,24.2,10.58-1,2.19-2.75,2.29-4.88,1.87-20.39-4-41-7.11-61.34-11.22C221.45,13.31,219.17,13.29,219.4,10.19Z"/><path class="cls-96" d="M219.4,10.19c.61,1.67,1.85,2.1,3.56,2.4,10.14,1.8,20.2,4.1,30.38,5.63,11.15,1.68,22.22,3.71,33.25,6,1.31.27,2.1-.89,3.22-1.14,1.4-.3,2.34.81,3.53,1.17,2.64,0,4,2.27,5.86,3.52-7.24.68-14.06-1.71-21-2.9-7.72-1.32-15.41-2.76-23.12-4.13q-11.28-2-22.56-4A91.31,91.31,0,0,0,222.33,15a26.25,26.25,0,0,1-8.81-2.44C215.15,10.92,217.29,10.61,219.4,10.19Z"/><path class="cls-102" d="M187.35,264.62c-1.81-1.11-2.23-2.25-1.83-3.76C187.05,261.54,187.39,262.74,187.35,264.62Z"/><path class="cls-103" d="M242.87,134.49c-.74-1.83-2.44-.84-3.66-1.23-1.51-.77-3.3-.86-4.65-2-3.76-4-4.86-8.25-1.3-13,2.84,0,5.79-1.12,8.46.8a2,2,0,0,1-2.3.91,3.67,3.67,0,0,1,.5,1.94c-.08,1.52-.4,3.08,1.34,4.47,4-.06,5.32-1.6,2.68-5.43a1.63,1.63,0,0,1,0-1.53c.74,0,1.75-.37,2.19,0,2.19,1.76,4.95,1.94,7.39,3,.07,5.36-2.35,9.3-6.91,12Z"/><path class="cls-104" d="M233.26,118.29c.75,2.52-1.6,4.8-.55,7.37.8,2,1.26,4.09,3.21,5.33.2,1.12-.18,1.68-1.38,1.44l-5.79,0c-3.53-.42-7.48.09-9.45-4.38a28.21,28.21,0,0,1,7.55-9.74Z"/><path class="cls-105" d="M246.57,134.4c0-.18-.19-.48-.12-.54,3.4-3.18,5.31-7.26,7-11.46a14.47,14.47,0,0,1,5.47,5.91,19.06,19.06,0,0,1-6.43,6.09Z"/><path class="cls-106" d="M239.17,121.71l-.73-2c1-1,2.23-.3,3.28-.59l2.18.36a4.54,4.54,0,0,0,.27,1C243.33,124.28,241.6,124.43,239.17,121.71Z"/><path class="cls-107" d="M176,121.78l-11.61-2.66c-3.09-2.12-3.42-5.41-5-8.12,3.49-4.33,8-4.79,12.79-4.39.16.11.44.21.45.33.43,5.1.84,10.2,4.63,14.2,0,0-.16.34-.29.48A.87.87,0,0,1,176,121.78Z"/><path class="cls-108" d="M176,121.78l.74-.79c-5-3.07-6.54-7.23-4.13-12.73.18-.41-.25-1.09-.4-1.65,1.91-.75,3.46.23,5.05,1a3.94,3.94,0,0,1,.91,3.12c-.16,2,0,3.87,2.11,3.94,3.42-.41,1.73-5,5.09-4.89l2.78.3,2,3.18c-1.06,6.73-3.2,8.47-11.57,9.39l-2.42.12A7.14,7.14,0,0,1,176,121.78Z"/><path class="cls-109" d="M178.52,122.68c.14-1,.94-1,1.69-1.06,4.56-.37,7.53-2.65,8.76-7.13.13-.47.74-.8,1.12-1.2,2.58,2.73,2.24,6.33,3,9.62l-1.91,2.28C186.65,126.08,182.83,123.13,178.52,122.68Z"/><path class="cls-110" d="M185.33,109.81c-2.37,1.41-.08,4.18-1.72,5.85-2.31,2.14-4.5,1.82-6.52-.46-1.28-1.45-2.16-3,.23-4.26,1.14-1.44,3.38-.63,4.47-2.18C183,108.94,184.55,108.09,185.33,109.81Z"/><path class="cls-111" d="M181.79,108.76c-.32,3.13-2.39,2.68-4.47,2.18a4.53,4.53,0,0,1-.1-3.3Z"/><path class="cls-112" d="M179.45,163.9c0-2.35,0-4.71,0-7.06,2.73,2-.29,5.59,2,7.8Z"/><path class="cls-113" d="M234.54,132.43c.61-.34,1.36-.53,1.38-1.44,1.07.79,2.6.92,3.29,2.27h-4.33A2,2,0,0,1,234.54,132.43Z"/><path class="cls-114" d="M173.74,188.46l-2.45-3.11a5.58,5.58,0,0,1,3.9,0c15.33,5.81,31.32,7.64,47.58,7.89.29,0,.58.3.89.47-.21,1.12-1.11,1.47-1.94,1.9-5.82,2.36-11.8,3.52-18.09,2.47-3-1.18-6.35-.63-9.48-1.28a90.18,90.18,0,0,1-14.78-4.18A11.59,11.59,0,0,1,173.74,188.46Z"/><path class="cls-115" d="M215.79,199a41.63,41.63,0,0,1-30.58.18c-3.26-1.25-6.31-2.93-8.37-5.93a2.87,2.87,0,0,1,1.58-.92c4.59.61,8.72,3.05,13.39,3.33a41.74,41.74,0,0,0,9.57,1.2c3.6.94,7.26.25,10.88.54C213.55,197.49,215.54,196.45,215.79,199Z"/><path class="cls-116" d="M215.79,199c-.56-1.53-1.87-1-2.94-1-4-.1-8.11-.15-12.17-.22,0-2.14,1.22-1.57,2.4-1.06a110.72,110.72,0,0,0,18.64-1.12A16.35,16.35,0,0,1,215.79,199Z"/><path class="cls-117" d="M178.29,193l-1.45.21a5.07,5.07,0,0,1-3.1-4.78c2.34-.14,3.4,2.54,5.66,2.59C180.07,192.29,179,192.57,178.29,193Z"/><path class="cls-118" d="M315.53,153.31h1.17c.3,1.68-.8,2.84-1.55,4.18C313.91,156,314.16,154.58,315.53,153.31Z"/><path class="cls-119" d="M239.17,121.71c2.09,1.32,3.76.94,5-1.22,1.86-.16,2.82.86,3.3,2.49-1.31,3.81-1.31,3.81-5,5.77a15.32,15.32,0,0,1-2-.65,19,19,0,0,1-2.07-1.23C238.3,125.1,237.1,123.23,239.17,121.71Z"/><path class="cls-120" d="M178.29,193l1.11-2,14.32,4.44c-.55,1-1.76.42-2.44,1.09C186.78,196,182.59,194.35,178.29,193Z"/><path class="cls-121" d="M191.28,196.58c.43-1.23,1.54-.93,2.44-1.09,3.1.55,6.45-.86,9.36,1.19-.89.15-2-.14-2.4,1.06C197.42,198.44,194.47,196.51,191.28,196.58Z"/></svg>